<svg width="223" height="52" viewBox="0 0 223 52" xmlns="http://www.w3.org/2000/svg"><defs><style>.white-fill{fill:white}</style></defs><title>Et's Pizza Logo</title><path d="M45.3219 4.11839C38.6116 1.46322 31.0093 0 23.9127 0C16.607 0 8.99318 1.44023 2.46904 4.05287C0.135713 4.99885 -0.265437 6.66666 0.136862 7.91034L0.604678 9.08045C0.69646 9.3096 0.833432 9.51792 1.00743 9.69301C1.18143 9.8681 1.3889 10.0064 1.61746 10.0996C1.84603 10.1928 2.09103 10.239 2.33784 10.2355C2.58466 10.2321 2.82825 10.1789 3.0541 10.0793C4.29548 9.53218 5.80467 8.86781 6.15755 8.72528C11.2162 6.62528 17.3782 5.51724 23.9633 5.51724C30.569 5.51724 36.3874 6.57931 41.7518 8.76436C42.2598 8.97126 43.4621 9.50229 44.7598 10.0816C44.9852 10.1823 45.2285 10.2365 45.4753 10.2412C45.7221 10.2458 45.9673 10.2007 46.1963 10.1086C46.4253 10.0164 46.6334 9.87915 46.8082 9.70489C46.9831 9.53062 47.121 9.32295 47.2139 9.09425L47.6414 8.04597L47.6805 7.94252C48.0771 6.76896 47.6966 5.06322 45.3219 4.11839Z" class="white-fill"/><path d="M41.5702 12.5126C36.3391 10.4057 29.9035 9.1954 23.9127 9.1954C17.8676 9.19937 11.8757 10.3253 6.24146 12.5161C6.18054 12.5402 6.00468 12.6172 5.74835 12.7322C5.52675 12.8315 5.327 12.9737 5.16066 13.1506C4.99431 13.3276 4.86465 13.5357 4.77916 13.763C4.69366 13.9903 4.65404 14.2323 4.66256 14.475C4.67108 14.7177 4.72759 14.9563 4.82881 15.177C5.28858 16.1782 5.91157 17.5425 6.61042 19.0724C10.3932 27.3563 17.4357 42.7586 20.6598 49.4253C20.9585 50.0472 21.4274 50.5717 22.0121 50.9379C22.5968 51.3041 23.2734 51.497 23.9633 51.4942C24.6544 51.497 25.332 51.3033 25.9173 50.9358C26.5025 50.5683 26.9713 50.042 27.269 49.4184L43.0575 15.2C43.1619 14.9762 43.22 14.7335 43.2283 14.4867C43.2365 14.2399 43.1948 13.9939 43.1056 13.7636C43.0163 13.5333 42.8815 13.3234 42.7091 13.1466C42.5367 12.9697 42.3303 12.8295 42.1024 12.7345C41.8426 12.6253 41.6598 12.5494 41.5851 12.5195L41.5702 12.5126ZM16.846 22.0609C16.0998 22.1096 15.3564 21.9296 14.715 21.5449C14.0736 21.1603 13.5647 20.5893 13.2562 19.908C12.9476 19.2267 12.8541 18.4676 12.988 17.7318C13.122 16.996 13.477 16.3185 14.0059 15.7897C14.5347 15.2609 15.2122 14.9058 15.948 14.7719C16.6837 14.6379 17.4429 14.7314 18.1242 15.04C18.8054 15.3485 19.3765 15.8574 19.7611 16.4988C20.1458 17.1402 20.3257 17.8836 20.2771 18.6299C20.219 19.5208 19.8389 20.3601 19.2076 20.9914C18.5763 21.6227 17.7369 22.0028 16.846 22.0609ZM24.2024 36.7735C23.4561 36.8222 22.7127 36.6422 22.0713 36.2576C21.4299 35.8729 20.921 35.3019 20.6125 34.6206C20.3039 33.9393 20.2104 33.1802 20.3443 32.4444C20.4783 31.7086 20.8334 31.0312 21.3622 30.5023C21.891 29.9735 22.5685 29.6184 23.3043 29.4845C24.0401 29.3505 24.7992 29.4441 25.4805 29.7526C26.1617 30.0612 26.7328 30.57 27.1174 31.2114C27.5021 31.8528 27.6821 32.5962 27.6334 33.3425C27.5753 34.2334 27.1952 35.0727 26.5639 35.704C25.9326 36.3353 25.0932 36.7154 24.2024 36.7735ZM31.5587 23.9C30.8124 23.9486 30.069 23.7687 29.4276 23.384C28.7862 22.9994 28.2773 22.4283 27.9688 21.7471C27.6603 21.0658 27.5667 20.3067 27.7007 19.5709C27.8346 18.8351 28.1897 18.1576 28.7185 17.6288C29.2473 17.0999 29.9248 16.7449 30.6606 16.6109C31.3964 16.477 32.1555 16.5705 32.8368 16.8791C33.5181 17.1876 34.0891 17.6965 34.4737 18.3379C34.8584 18.9793 35.0384 19.7227 34.9897 20.469C34.9316 21.3598 34.5515 22.1992 33.9202 22.8305C33.2889 23.4618 32.4496 23.8419 31.5587 23.9Z" class="white-fill"/><path d="M65.1504 15.6587H80.2958V20.7071H70.7037V30.0468H78.3269V35.0952H70.7037V45.9494H80.2958V50.9979H65.1504V15.6587Z" class="white-fill"/><path d="M87.8322 20.7071H82.0264V15.6587H99.1912V20.7071H93.3855V50.9979H87.8322V20.7071Z" class="white-fill"/><path d="M104.19 21.01H102.373V15.6587H107.724V20.4547L104.645 27.0682H102.07L104.19 21.01Z" class="white-fill"/><path d="M119.107 51.5027C116.415 51.5027 114.379 50.7454 112.999 49.2309C111.619 47.6827 110.929 45.4782 110.929 42.6174V40.598H116.179V43.0213C116.179 45.3099 117.138 46.4542 119.057 46.4542C119.999 46.4542 120.706 46.185 121.177 45.6465C121.682 45.0743 121.934 44.1656 121.934 42.9203C121.934 41.4394 121.598 40.1437 120.925 39.033C120.252 37.8887 119.006 36.5256 117.189 34.9438C114.9 32.9244 113.302 31.1069 112.393 29.4914C111.484 27.8423 111.03 25.9912 111.03 23.9381C111.03 21.1446 111.737 18.9906 113.15 17.4761C114.564 15.9279 116.617 15.1538 119.309 15.1538C121.968 15.1538 123.971 15.9279 125.317 17.4761C126.697 18.9906 127.387 21.1783 127.387 24.0391V25.5031H122.136V23.6857C122.136 22.4741 121.901 21.599 121.43 21.0605C120.958 20.4883 120.268 20.2023 119.36 20.2023C117.509 20.2023 116.583 21.3298 116.583 23.5847C116.583 24.8637 116.92 26.0585 117.593 27.1691C118.3 28.2798 119.562 29.6261 121.379 31.2079C123.701 33.2273 125.3 35.0616 126.175 36.7107C127.05 38.3599 127.488 40.2951 127.488 42.5164C127.488 45.4109 126.764 47.6322 125.317 49.1804C123.903 50.7286 121.834 51.5027 119.107 51.5027Z" class="white-fill"/><path d="M138.757 15.6587H146.936C149.696 15.6587 151.765 16.3991 153.145 17.88C154.525 19.3609 155.215 21.5317 155.215 24.3925V27.8759C155.215 30.7367 154.525 32.9075 153.145 34.3884C151.765 35.8693 149.696 36.6097 146.936 36.6097H144.311V50.9979H138.757V15.6587ZM146.936 31.5613C147.844 31.5613 148.518 31.3089 148.955 30.804C149.426 30.2992 149.662 29.4409 149.662 28.2293V24.0391C149.662 22.8275 149.426 21.9692 148.955 21.4644C148.518 20.9595 147.844 20.7071 146.936 20.7071H144.311V31.5613H146.936Z" class="white-fill"/><path d="M158.231 15.6587H163.785V50.9979H158.231V15.6587Z" class="white-fill"/><path d="M166.833 46.0504L177.132 20.7071H167.338V15.6587H183.089V20.6061L172.79 45.9494H183.089V50.9979H166.833V46.0504Z" class="white-fill"/><path d="M185.37 46.0504L195.669 20.7071H185.875V15.6587H201.626V20.6061L191.327 45.9494H201.626V50.9979H185.37V46.0504Z" class="white-fill"/><path d="M209.063 15.6587H216.585L222.34 50.9979H216.787L215.777 43.9805V44.0815H209.467L208.457 50.9979H203.308L209.063 15.6587ZM215.121 39.2854L212.647 21.8178H212.546L210.123 39.2854H215.121Z" class="white-fill"/></svg>
