<svg width="0" height="0" xmlns="http://www.w3.org/2000/svg" viewBox="0 0 100 100">
	<!-- Hamburger Menu -->
	<symbol width="24" height="14" viewBox="0 0 24 14" id="hamburger__menu">
		<title>Hamburger Menu</title><path d="M0 1C0 0.447715 0.447715 0 1 0H23C23.5523 0 24 0.447715 24 1C24 1.55228 23.5523 2 23 2H1C0.447715 2 0 1.55228 0 1ZM0 7C0 6.44772 0.447715 6 1 6H11C11.5523 6 12 6.44772 12 7C12 7.55228 11.5523 8 11 8H1C0.447715 8 0 7.55228 0 7ZM0 13C0 12.4477 0.447715 12 1 12H17C17.5523 12 18 12.4477 18 13C18 13.5523 17.5523 14 17 14H1C0.447715 14 0 13.5523 0 13Z"/>
	</symbol>

	<!-- Search button -->
	<symbol width="33" height="32" viewBox="0 0 33 32" id="search">
		<title>Search</title><path d="M23.4882 20.6864C25.425 18.0435 26.2925 14.7668 25.9171 11.5118C25.5417 8.25676 23.9511 5.26352 21.4635 3.13088C18.976 0.99824 15.7749 -0.11651 12.5008 0.00964916C9.22659 0.135808 6.1208 1.49357 3.80472 3.8113C1.48865 6.12903 0.13311 9.2358 0.00929403 12.5101C-0.114522 15.7843 1.00252 18.9846 3.13693 21.4706C5.27135 23.9566 8.26574 25.5451 11.521 25.9181C14.7763 26.2912 18.0524 25.4214 20.6939 23.4827H20.6919C20.7519 23.5627 20.8159 23.6387 20.888 23.7127L28.5887 31.4135C28.9638 31.7889 29.4726 31.9998 30.0032 32C30.5338 32.0002 31.0427 31.7896 31.418 31.4145C31.7934 31.0395 32.0043 30.5307 32.0045 30.0001C32.0047 29.4695 31.7941 28.9606 31.419 28.5852L23.7182 20.8844C23.6467 20.8121 23.5698 20.7472 23.4882 20.6864ZM24.0043 12.9976C24.0043 14.4423 23.7197 15.8729 23.1669 17.2076C22.614 18.5423 21.8037 19.7551 20.7821 20.7766C19.7606 21.7982 18.5478 22.6085 17.2131 23.1614C15.8784 23.7142 14.4478 23.9988 13.0031 23.9988C11.5584 23.9988 10.1279 23.7142 8.79319 23.1614C7.45847 22.6085 6.24571 21.7982 5.22416 20.7766C4.20261 19.7551 3.39227 18.5423 2.83941 17.2076C2.28656 15.8729 2.002 14.4423 2.002 12.9976C2.002 10.08 3.16105 7.28177 5.22416 5.21866C7.28727 3.15555 10.0855 1.9965 13.0031 1.9965C15.9208 1.9965 18.719 3.15555 20.7821 5.21866C22.8452 7.28177 24.0043 10.08 24.0043 12.9976Z"/>
	</symbol>

	<!-- Cart button -->
	<symbol width="33" height="32" viewBox="0 0 33 32" id="cart">
		<title>Shopping Cart</title><path d="M0 0.941176C0 0.421379 0.419161 0 0.936223 0H4.26501C4.69854 0 5.07536 0.299211 5.17578 0.723181L6.06126 4.46187H32.0049C32.2903 4.46187 32.56 4.59266 32.7376 4.81712C32.9152 5.04158 32.9813 5.33521 32.9172 5.61468L29.5884 20.1158C29.4904 20.5428 29.1121 20.8453 28.6762 20.8453H9.94155L10.5525 23.4248H28.6762C29.1932 23.4248 29.6124 23.8462 29.6124 24.366C29.6124 24.8858 29.1932 25.3072 28.6762 25.3072H9.813C9.37947 25.3072 9.00265 25.008 8.90224 24.584L7.91358 20.4097C7.8576 20.3213 7.81564 20.2224 7.79116 20.1158L6.12749 12.8684L3.52553 1.88235H0.936223C0.419161 1.88235 0 1.46097 0 0.941176ZM9.49573 18.963H27.9314L30.8281 6.34423H6.55149L7.95052 12.4388L9.49573 18.963ZM12.0322 27.5381C11.3236 27.5381 10.7492 28.1156 10.7492 28.8279C10.7492 29.5402 11.3236 30.1176 12.0322 30.1176C12.7408 30.1176 13.3152 29.5402 13.3152 28.8279C13.3152 28.1156 12.7408 27.5381 12.0322 27.5381ZM8.87678 28.8279C8.87678 27.076 10.2895 25.6558 12.0322 25.6558C13.7749 25.6558 15.1876 27.076 15.1876 28.8279C15.1876 30.5798 13.7749 32 12.0322 32C10.2895 32 8.87678 30.5798 8.87678 28.8279ZM26.457 27.5381C25.7484 27.5381 25.174 28.1156 25.174 28.8279C25.174 29.5402 25.7484 30.1176 26.457 30.1176C27.1655 30.1176 27.7399 29.5402 27.7399 28.8279C27.7399 28.1156 27.1655 27.5381 26.457 27.5381ZM23.3015 28.8279C23.3015 27.076 24.7143 25.6558 26.457 25.6558C28.1996 25.6558 29.6124 27.076 29.6124 28.8279C29.6124 30.5798 28.1996 32 26.457 32C24.7143 32 23.3015 30.5798 23.3015 28.8279Z"/>
	</symbol>

	<!-- Pizza Slice -->
	<symbol width="41" height="38" viewBox="0 0 41 38" id="pizza__slice">
		<title>Et's Pizza Slice</title><path d="M3.2729 1.98245C1.16283 7.31519 -1.07719e-06 13.3568 -8.30672e-07 18.9964C-5.76887e-07 24.8024 1.14456 30.8531 3.22084 36.0378C3.97261 37.8921 5.29803 38.2109 6.28639 37.8912L7.21628 37.5195C7.39839 37.4465 7.56394 37.3377 7.70309 37.1994C7.84223 37.0611 7.95211 36.8962 8.02618 36.7146C8.10025 36.5329 8.137 36.3382 8.13424 36.1421C8.13147 35.946 8.08924 35.7524 8.01008 35.5729C7.57527 34.5864 7.0473 33.387 6.93403 33.1066C5.26515 29.0865 4.38458 24.1894 4.38458 18.9563C4.38458 13.7066 5.22861 9.08273 6.96508 4.81964C7.12951 4.41589 7.55152 3.46042 8.0119 2.42913C8.0919 2.25002 8.13503 2.05664 8.13871 1.86052C8.14239 1.66439 8.10656 1.46952 8.03334 1.28754C7.96012 1.10556 7.85101 0.940174 7.71252 0.801246C7.57404 0.662323 7.409 0.552696 7.22724 0.478904L6.39417 0.139099L6.31196 0.108043C5.37933 -0.2071 4.02376 0.0952528 3.2729 1.98245Z"/><path d="M9.94386 4.96396C8.2695 9.12109 7.30763 14.2355 7.30763 18.9964C7.31079 23.8005 8.2056 28.5623 9.9466 33.0399C9.96578 33.0883 10.027 33.2281 10.1183 33.4318C10.1973 33.6079 10.3103 33.7666 10.4509 33.8988C10.5915 34.031 10.7569 34.134 10.9375 34.202C11.1182 34.2699 11.3105 34.3014 11.5033 34.2946C11.6962 34.2879 11.8858 34.243 12.0612 34.1625C12.8569 33.7971 13.9411 33.302 15.1569 32.7467C21.7402 29.7405 33.9805 24.1438 39.2785 21.5815C39.7728 21.3442 40.1896 20.9715 40.4806 20.5069C40.7716 20.0422 40.9249 19.5045 40.9227 18.9562C40.9249 18.407 40.771 17.8685 40.4789 17.4034C40.1869 16.9383 39.7687 16.5658 39.273 16.3292L12.0795 3.78196C11.9016 3.69899 11.7088 3.65283 11.5127 3.64627C11.3165 3.63972 11.121 3.67289 10.938 3.74379C10.755 3.81469 10.5882 3.92187 10.4476 4.05887C10.3071 4.19588 10.1957 4.35988 10.1202 4.54103C10.0334 4.74747 9.97309 4.89272 9.94934 4.95209L9.94386 4.96396ZM17.5319 24.6124C17.5706 25.2054 17.4276 25.7962 17.1219 26.3059C16.8162 26.8156 16.3624 27.2201 15.821 27.4653C15.2796 27.7105 14.6763 27.7848 14.0915 27.6783C13.5068 27.5719 12.9684 27.2897 12.5481 26.8695C12.1279 26.4492 11.8457 25.9108 11.7393 25.3261C11.6328 24.7413 11.7072 24.138 11.9524 23.5966C12.1976 23.0552 12.602 22.6014 13.1117 22.2957C13.6214 21.9901 14.2122 21.847 14.8053 21.8857C15.5132 21.9319 16.1803 22.234 16.682 22.7356C17.1837 23.2373 17.4858 23.9044 17.5319 24.6124ZM29.2241 18.7663C29.2628 19.3593 29.1198 19.9501 28.8141 20.4598C28.5084 20.9695 28.0546 21.374 27.5132 21.6192C26.9718 21.8644 26.3685 21.9387 25.7838 21.8322C25.199 21.7258 24.6606 21.4436 24.2404 21.0234C23.8201 20.6031 23.5379 20.0647 23.4315 19.48C23.325 18.8952 23.3994 18.2919 23.6446 17.7505C23.8898 17.2091 24.2942 16.7553 24.8039 16.4496C25.3136 16.144 25.9044 16.0009 26.4975 16.0396C27.2055 16.0858 27.8725 16.3878 28.3742 16.8895C28.8759 17.3912 29.178 18.0583 29.2241 18.7663ZM18.9934 12.9201C19.0321 13.5132 18.8891 14.104 18.5834 14.6137C18.2777 15.1234 17.8239 15.5279 17.2825 15.773C16.7411 16.0182 16.1378 16.0926 15.5531 15.9861C14.9683 15.8797 14.4299 15.5975 14.0097 15.1773C13.5894 14.757 13.3072 14.2186 13.2008 13.6339C13.0943 13.0491 13.1687 12.4458 13.4139 11.9044C13.6591 11.363 14.0635 10.9092 14.5732 10.6035C15.0829 10.2979 15.6737 10.1548 16.2668 10.1935C16.9748 10.2397 17.6418 10.5417 18.1435 11.0434C18.6452 11.5451 18.9473 12.2122 18.9934 12.9201Z"/>
	</symbol>

	<!-- Trash Can -->
	<symbol width="22" height="24" viewBox="0 0 22 24" id="trash__can">
		<title>Trash Can</title><path d="M16.313 4V2.187V2.144C16.313 0.96 15.353 0 14.169 0H7.831C7.54579 6.44839e-05 7.26347 0.0570854 7.0006 0.167718C6.73772 0.27835 6.49959 0.440365 6.30017 0.64426C6.10074 0.848154 5.94405 1.08982 5.83927 1.35508C5.73449 1.62035 5.68374 1.90386 5.69 2.189V2.187V4H0V6H0.575C0.771 6.023 0.947 6.099 1.09 6.214L1.088 6.212C1.207 6.369 1.291 6.558 1.327 6.764L1.328 6.772L2.515 21.878C2.609 23.718 2.609 23.996 4.765 23.996H17.227C19.387 23.996 19.387 23.721 19.477 21.883L20.664 6.783C20.7 6.566 20.784 6.374 20.906 6.211L20.904 6.214C21.05 6.09692 21.2261 6.02344 21.412 6.002H21.992V4.002H16.305L16.313 4ZM7 2.187C7 1.587 7.487 1.249 8.106 1.249H13.84C14.458 1.249 15.002 1.593 15.002 2.187V4H7.002L7 2.187ZM6.469 20L5.829 8H7.098L7.754 20H6.469ZM11.694 20H10.32V8H11.695L11.694 20ZM15.544 20H14.269L14.925 8H16.194L15.544 20Z"/>
	</symbol>

	<!-- Checkout Arrow -->
	<symbol width="25" height="8" viewBox="0 0 25 8" id="checkout__arrow">
		<title>Checkout Arrow</title><path d="M24.3536 4.35355C24.5488 4.15829 24.5488 3.84171 24.3536 3.64645L21.1716 0.464466C20.9763 0.269204 20.6597 0.269204 20.4645 0.464466C20.2692 0.659728 20.2692 0.976311 20.4645 1.17157L23.2929 4L20.4645 6.82843C20.2692 7.02369 20.2692 7.34027 20.4645 7.53553C20.6597 7.7308 20.9763 7.7308 21.1716 7.53553L24.3536 4.35355ZM0 4.5H24V3.5H0V4.5Z"/>
	</symbol>

	<!-- Payment Methods -->
	<!-- Paypal -->
	<symbol width="42" height="32" viewBox="0 0 42 32" id="paypal">
		<title>Paypal Logo</title><path d="M13.3078 16.1569C13.3078 17.0285 12.6149 17.6919 11.7368 17.6919C11.0798 17.6919 10.5938 17.3204 10.5938 16.621C10.5938 15.7493 11.2726 15.0499 12.1443 15.0499C12.809 15.0499 13.3091 15.4575 13.3091 16.1569H13.3078ZM5.75074 12.6933H5.41519C5.30848 12.6933 5.20048 12.7653 5.18634 12.8861L4.87907 14.7941L5.46533 14.7722C6.25086 14.7722 6.85769 14.6655 7.0004 13.7578C7.16497 12.8 6.55814 12.6933 5.75074 12.6933ZM26.0358 12.6933H25.7144C25.5859 12.6933 25.4997 12.7653 25.4856 12.8861L25.186 14.7941L25.7569 14.7722C26.6851 14.7722 27.3279 14.5575 27.3279 13.4865C27.3202 12.7293 26.6427 12.6933 26.0346 12.6933H26.0358ZM41.1423 3.42885V28.5712C41.142 29.4804 40.7806 30.3524 40.1376 30.9953C39.4947 31.6383 38.6227 31.9997 37.7135 32H3.42885C2.51956 31.9997 1.64762 31.6383 1.00466 30.9953C0.361703 30.3524 0.000340747 29.4804 0 28.5712V3.42885C0.000340747 2.51956 0.361703 1.64762 1.00466 1.00466C1.64762 0.361703 2.51956 0.000340747 3.42885 0H37.7135C38.6227 0.000340747 39.4947 0.361703 40.1376 1.00466C40.7806 1.64762 41.142 2.51956 41.1423 3.42885ZM9.16545 13.0996C9.16545 11.5992 8.00836 11.0991 6.6867 11.0991H3.82997C3.73769 11.0998 3.64887 11.1343 3.58038 11.1962C3.51189 11.2581 3.46849 11.3429 3.45842 11.4346L2.28718 18.7269C2.26533 18.8696 2.37332 19.0123 2.51603 19.0123H3.87368C4.06653 19.0123 4.24524 18.8053 4.2671 18.6047L4.58851 16.7045C4.66051 16.1903 5.5309 16.369 5.87417 16.369C7.91708 16.369 9.16673 15.1553 9.16673 13.0983L9.16545 13.0996ZM15.1798 13.7282H13.8221C13.5508 13.7282 13.5367 14.1217 13.5225 14.3145C13.1086 13.7077 12.5082 13.5997 11.8293 13.5997C10.0796 13.5997 8.74375 15.1348 8.74375 16.828C8.74375 18.2203 9.61543 19.128 11.0078 19.128C11.6506 19.128 12.4503 18.7783 12.9003 18.2782C12.8587 18.4226 12.8346 18.5715 12.8283 18.7217C12.8283 18.8863 12.9003 19.0072 13.0571 19.0072H14.2862C14.4791 19.0072 14.6436 18.8002 14.6796 18.5996L15.4086 14.0072C15.4305 13.871 15.3225 13.7282 15.1798 13.7282ZM18.0725 20.7209L22.6224 14.1062C22.6584 14.0702 22.6584 14.0342 22.6584 13.9854C22.6584 13.8645 22.5517 13.736 22.4296 13.736H21.0578C20.9939 13.7385 20.9316 13.756 20.8758 13.787C20.8199 13.818 20.7722 13.8618 20.7364 13.9147L18.8439 16.7007L18.0583 14.0227C18.0288 13.9412 17.9756 13.8705 17.9054 13.8196C17.8353 13.7687 17.7515 13.74 17.6649 13.7372H16.3291C16.207 13.7372 16.1003 13.8658 16.1003 13.9867C16.1003 14.0728 17.4926 18.0442 17.6148 18.4222C17.4219 18.6935 16.1504 20.4651 16.1504 20.6798C16.1504 20.8084 16.2571 20.9086 16.3793 20.9086H17.7511C17.8152 20.9044 17.8776 20.8855 17.9333 20.8534C17.989 20.8213 18.0366 20.7769 18.0725 20.7235V20.7209ZM29.4505 13.0996C29.4505 11.5992 28.2935 11.0991 26.9718 11.0991H24.1356C24.0407 11.0983 23.9486 11.1318 23.8763 11.1935C23.8041 11.2551 23.7565 11.3407 23.7422 11.4346L22.5851 18.7204C22.571 18.8632 22.6777 19.0059 22.814 19.0059H24.2783C24.4211 19.0059 24.5278 18.8992 24.5638 18.777L24.8852 16.7058C24.9572 16.1916 25.8288 16.3703 26.1708 16.3703C28.1996 16.3703 29.4493 15.1566 29.4493 13.0996H29.4505ZM35.4636 13.7282H34.1059C33.8346 13.7282 33.8205 14.1217 33.7986 14.3145C33.4052 13.7077 32.7984 13.5997 32.1054 13.5997C30.3556 13.5997 29.0198 15.1348 29.0198 16.828C29.0198 18.2203 29.8915 19.128 31.2839 19.128C31.9486 19.128 32.7483 18.7783 33.1764 18.2782C33.1545 18.3849 33.1044 18.6137 33.1044 18.7217C33.1044 18.8863 33.1764 19.0072 33.3332 19.0072H34.5687C34.7616 19.0072 34.9262 18.8002 34.9622 18.5996L35.6911 14.0072C35.713 13.871 35.605 13.7282 35.4623 13.7282H35.4636ZM38.8564 11.3498C38.8564 11.2071 38.7497 11.1004 38.6276 11.1004H37.3059C37.1992 11.1004 37.0912 11.1865 37.0771 11.2932L35.92 18.7217L35.8994 18.7577C35.8994 18.8863 36.0061 19.0072 36.1488 19.0072H37.3278C37.5065 19.0072 37.6852 18.8002 37.6993 18.5996L38.8564 11.3716V11.3498ZM32.4281 15.0499C31.5564 15.0499 30.8776 15.7429 30.8776 16.621C30.8776 17.3139 31.3777 17.6919 32.0347 17.6919C32.8922 17.6919 33.5852 17.035 33.5852 16.1569C33.5929 15.4575 33.0928 15.0499 32.4281 15.0499Z"/>
	</symbol>

	<!-- Visa -->
	<symbol width="52" height="32" viewBox="0 0 52 32" id="visa">
		<title>Visa Logo</title><path d="M2.18052 0C1.05507 0 0.142303 0.91251 0.142303 2.03822V29.9618C0.142303 31.0874 1.05553 32 2.18052 32H49.0595C50.185 32 51.0977 31.0875 51.0977 29.9618V2.03822C51.0977 0.912561 50.1845 0 49.0595 0H2.18052ZM30.5754 9.53661C31.8156 9.53661 32.8095 9.81055 33.4432 10.0653L33.0101 12.7898L32.7235 12.6449C32.1331 12.3902 31.3747 12.145 30.3286 12.1624C29.0763 12.1624 28.4974 12.721 28.4974 13.2437C28.4901 13.8326 29.1738 14.2209 30.292 14.8025C32.1374 15.6999 32.9904 16.7879 32.9783 18.2181C32.9535 20.8279 30.7707 22.5143 27.4082 22.5143C25.9737 22.4985 24.5916 22.1949 23.8445 21.8439L24.2936 19.0286L24.706 19.2293C25.7566 19.6987 26.4368 19.8886 27.7171 19.8886C28.6365 19.8886 29.6233 19.5036 29.6312 18.6608C29.6371 18.1105 29.2187 17.7182 27.9735 17.1019C26.7601 16.5004 25.1516 15.4929 25.1694 13.6863C25.1884 11.2424 27.4147 9.53661 30.5754 9.53661ZM4.64865 9.93631H9.81267C10.5081 9.9626 11.0695 10.1865 11.2633 10.9411L12.3764 16.6863C12.3765 16.6868 12.3762 16.6889 12.3764 16.6895L12.7108 18.4109L15.8461 9.93631H19.2378L14.1964 22.3408L10.8079 22.344L8.11046 12.3344C9.71545 13.1847 11.0819 14.1685 11.8732 15.5223C11.6692 15.0939 11.4003 14.6103 11.0563 14.1338C10.6557 13.5788 9.79056 12.8622 9.42893 12.5573C8.1688 11.495 6.45746 10.6371 4.60885 10.1831L4.64865 9.93631ZM20.5866 9.95062H23.9035L21.8286 22.336H18.5117L20.5866 9.95062ZM39.3207 9.95062H41.8334L44.464 22.336H41.448C41.448 22.336 41.1488 20.9131 41.0516 20.4793C40.5775 20.4793 37.2622 20.4745 36.8891 20.4745C36.7629 20.8098 36.2044 22.336 36.2044 22.336H32.792L37.6184 10.9793C37.9601 10.1723 38.5426 9.95062 39.3207 9.95062ZM39.5675 13.2818C39.4043 13.7425 39.1201 14.4865 39.1391 14.4538C39.1391 14.4538 38.1181 17.1769 37.8509 17.8838L40.534 17.8821C40.4047 17.268 39.7856 14.3393 39.7856 14.3393L39.5675 13.2819V13.2818Z"/>
	</symbol>

	<!-- Mastercard -->
	<symbol width="42" height="32" viewBox="0 0 42 32" id="mastercard">
		<title>Mastercard Logo</title><path d="M34.5906 26.9487C34.5906 27.4346 34.2628 27.7843 33.7909 27.7843C33.3049 27.7843 32.9912 27.4128 32.9912 26.9487C32.9912 26.4845 33.3049 26.113 33.7909 26.113C34.2628 26.113 34.5906 26.4845 34.5906 26.9487ZM12.3912 26.113C11.8833 26.113 11.5915 26.4845 11.5915 26.9487C11.5915 27.4128 11.8846 27.7843 12.3912 27.7843C12.8553 27.7843 13.169 27.4346 13.169 26.9487C13.1613 26.4845 12.8553 26.113 12.3912 26.113ZM20.7839 26.0924C20.3982 26.0924 20.1617 26.3418 20.1051 26.7134H21.4692C21.4049 26.3058 21.1555 26.0924 20.7839 26.0924ZM28.4837 26.113C27.9978 26.113 27.7059 26.4845 27.7059 26.9487C27.7059 27.4128 27.999 27.7843 28.4837 27.7843C28.9697 27.7843 29.2834 27.4346 29.2834 26.9487C29.2834 26.4845 28.9684 26.113 28.4837 26.113ZM36.0473 27.9772C36.0473 27.999 36.0691 28.0132 36.0691 28.0556C36.0691 28.0775 36.0473 28.0916 36.0473 28.134C36.0254 28.1559 36.0254 28.17 36.0113 28.1906C35.9894 28.2125 35.9753 28.2266 35.9328 28.2266C35.911 28.2485 35.8968 28.2485 35.8544 28.2485C35.8326 28.2485 35.8184 28.2485 35.776 28.2266C35.7541 28.2266 35.74 28.2047 35.7194 28.1906C35.6976 28.1687 35.6834 28.1546 35.6834 28.134C35.6616 28.098 35.6616 28.0775 35.6616 28.0556C35.6616 28.0196 35.6616 27.999 35.6834 27.9772C35.6834 27.9412 35.7053 27.9206 35.7194 27.8988C35.7413 27.8769 35.7554 27.8769 35.776 27.8628C35.812 27.8409 35.8326 27.8409 35.8544 27.8409C35.8904 27.8409 35.911 27.8409 35.9328 27.8628C35.9688 27.8833 35.9894 27.8833 36.0113 27.8988C36.0331 27.9142 36.0254 27.9412 36.0473 27.9772ZM35.8904 28.0775C35.9264 28.0775 35.9264 28.0556 35.947 28.0556C35.9688 28.0338 35.9688 28.0196 35.9688 27.999C35.9688 27.9785 35.9688 27.963 35.947 27.9425C35.9264 27.9425 35.911 27.9206 35.8685 27.9206H35.7541V28.17H35.8107V28.0697H35.8326L35.911 28.17H35.9675L35.8904 28.0775ZM41.24 3.42885V28.5712C41.2397 29.4804 40.8783 30.3524 40.2354 30.9953C39.5924 31.6383 38.7205 31.9997 37.8112 32H3.52656C2.61728 31.9997 1.74534 31.6383 1.10238 30.9953C0.45942 30.3524 0.098058 29.4804 0.0977173 28.5712V3.42885C0.098058 2.51956 0.45942 1.64762 1.10238 1.00466C1.74534 0.361703 2.61728 0.000340747 3.52656 0H37.8112C38.7205 0.000340747 39.5924 0.361703 40.2354 1.00466C40.8783 1.64762 41.2397 2.51956 41.24 3.42885ZM4.6708 13.3991C4.6708 18.8632 9.10631 23.291 14.5626 23.291C16.5058 23.2854 18.405 22.7121 20.0267 21.6415C14.8198 17.4065 14.8558 9.41358 20.0267 5.17734C18.4066 4.10334 16.5064 3.5297 14.5626 3.52784C9.10631 3.52141 4.6708 7.95564 4.6708 13.3991ZM20.6695 21.1709C25.7054 17.2419 25.6836 9.58586 20.6695 5.63632C15.6554 9.58586 15.6336 17.2497 20.6695 21.1709ZM10.5051 26.6208C10.5051 25.9998 10.0976 25.5923 9.45473 25.5704C9.1256 25.5704 8.7759 25.6707 8.54063 26.0346C8.36963 25.7414 8.0765 25.5704 7.66895 25.5704C7.52086 25.5682 7.37445 25.6021 7.24247 25.6693C7.1105 25.7366 6.99694 25.835 6.9117 25.9561V25.6424H6.32672V28.2639H6.9117C6.9117 26.9139 6.73299 26.1066 7.55453 26.1066C8.28349 26.1066 8.14079 26.8355 8.14079 28.2639H8.70519C8.70519 26.9564 8.52648 26.1066 9.34802 26.1066C10.077 26.1066 9.93299 26.8214 9.93299 28.2639H10.5193V26.6208H10.5051ZM13.7128 25.6424H13.1484V25.9561C13.0485 25.8315 12.921 25.7318 12.776 25.6649C12.631 25.5979 12.4724 25.5656 12.3127 25.5704C11.5773 25.5704 11.0129 26.1567 11.0129 26.9487C11.0129 27.7483 11.5773 28.3269 12.3127 28.3269C12.6843 28.3269 12.9556 28.1906 13.1484 27.9412V28.2703H13.7128V25.6424ZM16.6056 27.4706C16.6056 26.3997 14.9702 26.8844 14.9702 26.3843C14.9702 25.9767 15.82 26.0423 16.2919 26.3058L16.5271 25.8417C15.856 25.4059 14.3698 25.4136 14.3698 26.428C14.3698 27.4488 16.0051 27.0207 16.0051 27.4989C16.0051 27.9489 15.0409 27.9129 14.5266 27.5555L14.2772 28.0055C15.0769 28.548 16.6056 28.4336 16.6056 27.4693V27.4706ZM19.1344 28.134L18.9776 27.6481C18.7063 27.7972 18.1059 27.9618 18.1059 27.3549V26.1695H19.0419V25.6411H18.1059V24.8415H17.5197V25.6411H16.9771V26.1631H17.5197V27.3562C17.5197 28.6136 18.7552 28.3847 19.1344 28.134ZM20.0833 27.1775H22.0477C22.0477 26.0204 21.5193 25.5627 20.8045 25.5627C20.0473 25.5627 19.5047 26.1271 19.5047 26.9409C19.5047 28.4053 21.1195 28.6483 21.9192 27.9553L21.6479 27.5272C21.0912 27.9849 20.2478 27.9412 20.0833 27.1775ZM24.3053 25.6424C23.9775 25.4997 23.4774 25.5139 23.2203 25.9561V25.6424H22.634V28.2639H23.2203V26.7854C23.2203 25.9561 23.8991 26.0641 24.1344 26.185L24.3053 25.6424ZM25.0626 26.9487C25.0626 26.1335 25.8918 25.87 26.5411 26.3483L26.8124 25.8841C25.9831 25.2349 24.4763 25.591 24.4763 26.9551C24.4763 28.3693 26.0757 28.6547 26.8124 28.026L26.5411 27.5619C25.8841 28.026 25.0626 27.7483 25.0626 26.9474V26.9487ZM29.826 25.6424H29.2397V25.9561C28.647 25.1706 27.1042 25.6141 27.1042 26.9487C27.1042 28.3205 28.7036 28.7126 29.2397 27.9412V28.2703H29.826V25.6424ZM32.2327 25.6424C32.0617 25.5563 31.4472 25.4354 31.1476 25.9561V25.6424H30.5832V28.2639H31.1476V26.7854C31.1476 25.9998 31.7904 26.05 32.0617 26.185L32.2327 25.6424ZM35.1113 24.5779H34.5469V25.9561C33.9606 25.1783 32.4114 25.5923 32.4114 26.9487C32.4114 28.3346 34.0185 28.7049 34.5469 27.9412V28.2703H35.1113V24.5779ZM35.6551 19.2141V19.5433H35.7117V19.2141H35.8467V19.1576H35.5176V19.2141H35.6551ZM36.1257 28.0556C36.1257 28.0196 36.1257 27.9772 36.1051 27.9412C36.0833 27.9193 36.0691 27.8846 36.0485 27.8628C36.028 27.8409 35.992 27.8268 35.9701 27.8062C35.9341 27.8062 35.8917 27.7843 35.8557 27.7843C35.8338 27.7843 35.7991 27.8062 35.7554 27.8062C35.7272 27.822 35.7009 27.841 35.677 27.8628C35.641 27.8833 35.6204 27.9193 35.6204 27.9412C35.5986 27.9772 35.5986 28.0196 35.5986 28.0556C35.5986 28.0775 35.5986 28.1122 35.6204 28.1559C35.6204 28.1777 35.6423 28.2125 35.677 28.2343C35.6987 28.2587 35.7255 28.278 35.7554 28.2909C35.7914 28.3115 35.8338 28.3115 35.8557 28.3115C35.8917 28.3115 35.9341 28.3115 35.9701 28.2909C35.992 28.269 36.0267 28.2549 36.0485 28.2343C36.0704 28.2137 36.0845 28.1777 36.1051 28.1559C36.1257 28.1135 36.1257 28.0775 36.1257 28.0556ZM36.3545 19.1499H36.2542L36.1398 19.3993L36.0254 19.1499H35.9251V19.5356H35.9817V19.2424L36.0961 19.4918H36.1745L36.2748 19.2424V19.5356H36.3532L36.3545 19.1499ZM36.6682 13.3991C36.6682 7.95564 32.2327 3.52141 26.7764 3.52141C24.8331 3.52629 22.9337 4.09968 21.3123 5.17091C26.4627 9.40715 26.5411 17.4207 21.3123 21.635C22.9333 22.7072 24.833 23.2806 26.7764 23.2845C32.2327 23.2922 36.6682 18.8632 36.6682 13.3991Z"/>
	</symbol>

	<!-- American Express -->
	<symbol width="49" height="32" viewBox="0 0 49 32" id="american__express">
		<title>American Express Logo</title><path d="M45.0419 31.9987H3.44012C2.5914 31.9987 1.77743 31.6615 1.17729 31.0614C0.577146 30.4612 0.23999 29.6473 0.23999 28.7985L0.23999 15.3366H2.54542L3.06544 14.0779H4.22949L4.74818 15.3313H9.28437V14.3779L9.68972 15.338H12.0445L12.4498 14.3619V15.3353H23.721V13.2766H23.9343C24.0863 13.2819 24.1303 13.2952 24.1303 13.5486V15.338H29.9612V14.8593C30.5573 15.162 31.26 15.3393 32.0053 15.3393L32.132 15.338H32.1253H34.5788L35.1041 14.0846H36.2682L36.7815 15.338H41.5097V14.1459L42.2244 15.338H46.0059V7.46564H42.2631V8.39502L41.7391 7.46564H37.8909V8.39502L37.4095 7.46564H32.2133C31.426 7.42586 30.6417 7.58788 29.9346 7.93633L29.9626 7.92433V7.46564H26.3784V7.92433C25.9446 7.58239 25.3966 7.41882 24.8463 7.46698H24.8543H11.7565L10.8778 9.5004L9.97506 7.46698H5.84956V8.39635L5.39487 7.46698H1.87472L0.24399 11.2005V3.20013C0.24399 2.35141 0.581146 1.53744 1.18129 0.937297C1.78143 0.337156 2.5954 0 3.44412 0H45.0459C45.8946 0 46.7086 0.337156 47.3087 0.937297C47.9088 1.53744 48.246 2.35141 48.246 3.20013V17.174H45.7486C45.7086 17.1714 45.6605 17.1714 45.6139 17.1714C45.0352 17.1714 44.4978 17.3447 44.0498 17.6421L44.0605 17.6354V17.174H40.367C39.79 17.1422 39.2191 17.3061 38.7469 17.6394L38.7549 17.6341V17.1727H32.16V17.6341C31.6201 17.3296 31.0104 17.1706 30.3906 17.1727H30.3386H30.3412H25.9904V17.6341C25.422 17.27 24.7475 17.1079 24.0756 17.174L24.0877 17.1727H19.2194L18.1047 18.3781L17.062 17.1727H9.78972V25.0504H16.926L18.0741 23.8263L19.1554 25.0504H23.5543V23.2063H24.1677C24.7574 23.2294 25.3456 23.1309 25.8957 22.917L25.8664 22.9276V25.053H29.4932V23.001H29.6679C29.8892 23.001 29.9119 23.009 29.9119 23.233V25.0544H40.9337L41.0684 25.057C41.7004 25.057 42.2897 24.8677 42.7804 24.5437L42.7684 24.5504V25.0544H46.2646L46.4312 25.057C47.0859 25.057 47.7086 24.9224 48.274 24.6784L48.2433 24.6904V28.7999C48.2433 29.6486 47.9062 30.4626 47.306 31.0627C46.7059 31.6628 45.8919 32 45.0432 32L45.0419 31.9987ZM28.3812 23.9463H27.0238V18.2994H30.1386C30.7011 18.2473 31.2676 18.3419 31.7826 18.5741L31.7613 18.5661C32.1787 18.7955 32.4573 19.2328 32.4573 19.7342L32.4547 19.8235V19.8195L32.456 19.8702C32.456 20.5182 32.0653 21.0755 31.5053 21.3182L31.4946 21.3222C31.7626 21.4182 31.9866 21.5822 32.1533 21.7942L32.156 21.7969C32.3442 22.1085 32.4231 22.4741 32.38 22.8356L32.3813 22.8276V23.945H31.0266V23.2383C31.0907 22.8535 31.0135 22.4586 30.8093 22.1263L30.8133 22.1329C30.6725 22.0261 30.5116 21.9489 30.3401 21.906C30.1687 21.8632 29.9904 21.8555 29.8159 21.8836L29.8239 21.8822H28.3812V23.945V23.9463ZM28.3812 19.4661V20.7342H30.0212C30.2528 20.7556 30.4859 20.7141 30.6959 20.6142L30.6879 20.6182C30.7737 20.5628 30.8443 20.4868 30.8932 20.3971C30.9421 20.3075 30.9678 20.207 30.9679 20.1048L30.9666 20.0742V20.0755C30.9732 19.9736 30.9508 19.8719 30.9019 19.7822C30.8531 19.6925 30.7798 19.6185 30.6906 19.5688L30.6879 19.5675C30.4856 19.477 30.2633 19.4402 30.0426 19.4608H30.0479L28.3812 19.4661ZM16.3473 23.945H11.0044V18.2994H16.4313L18.0914 20.1502L19.8075 18.2994H24.1183C25.6491 18.2994 26.3931 18.9088 26.3931 20.1595C26.3931 21.4329 25.6237 22.0516 24.0463 22.0516H22.3596V23.9437H19.7368L18.0754 22.0783L16.3487 23.945H16.3473ZM21.0155 18.9048L18.9434 21.1315L21.0155 23.4303V18.9048ZM12.3498 21.6449V22.7676H15.6673L17.2007 21.1115L15.726 19.4661H12.3485V20.4929H15.3113V21.6436L12.3498 21.6449ZM22.3596 19.4675V20.9049H24.1023C24.6357 20.9049 24.9424 20.6329 24.9424 20.1582C24.9424 19.7048 24.657 19.4661 24.117 19.4661L22.3596 19.4675ZM46.4112 23.9477H43.8058V22.7343H46.4006C46.5947 22.761 46.7916 22.7103 46.9486 22.5929L46.9473 22.5943C46.9974 22.5478 47.0373 22.4915 47.0646 22.4288C47.0919 22.3662 47.106 22.2986 47.1059 22.2303V22.2263V22.2089C47.106 22.1414 47.0914 22.0747 47.0631 22.0135C47.0348 21.9522 46.9934 21.8979 46.9419 21.8542C46.804 21.7545 46.6338 21.7098 46.4646 21.7289H46.4673L46.2179 21.7209C44.9992 21.6889 43.6191 21.6516 43.6191 19.9808C43.6191 19.1675 44.1285 18.2994 45.5539 18.2994H48.2433V19.5021H45.7832C45.5932 19.4809 45.4013 19.5191 45.2339 19.6115L45.2392 19.6088C45.1734 19.6521 45.1204 19.7124 45.0859 19.7833C45.0514 19.8541 45.0367 19.933 45.0432 20.0115V20.0102V20.0248C45.0432 20.1147 45.0715 20.2022 45.1242 20.275C45.1769 20.3478 45.2512 20.4021 45.3365 20.4302L45.3392 20.4315C45.5083 20.4836 45.6852 20.5053 45.8619 20.4955H45.8579L46.5899 20.5142C47.1417 20.4591 47.693 20.6234 48.1247 20.9715L48.1207 20.9689C48.1607 21.0009 48.1953 21.0355 48.226 21.0742L48.2273 21.0755L48.2433 23.225C48.0191 23.487 47.7338 23.6898 47.4127 23.8156C47.0916 23.9414 46.7445 23.9863 46.4019 23.9463L46.4112 23.9477ZM41.1457 23.9477H38.5163V22.7343H41.1324C41.3281 22.7599 41.5262 22.7093 41.6857 22.5929L41.6831 22.5943C41.7328 22.5476 41.7725 22.4912 41.7996 22.4286C41.8266 22.366 41.8405 22.2985 41.8404 22.2303V22.2263V22.2169C41.8403 22.1483 41.8257 22.0805 41.7974 22.0179C41.7691 21.9554 41.7279 21.8996 41.6764 21.8542C41.5359 21.7544 41.3636 21.7098 41.1924 21.7289H41.195L40.947 21.7209C39.7323 21.6889 38.3536 21.6516 38.3536 19.9808C38.3536 19.1675 38.8603 18.2994 40.283 18.2994H42.9871V19.5021H40.5123C40.3236 19.4811 40.133 19.5193 39.967 19.6115L39.9723 19.6088C39.9023 19.657 39.8465 19.7232 39.811 19.8005C39.7755 19.8777 39.7615 19.9632 39.7705 20.0477C39.7796 20.1323 39.8112 20.2128 39.8622 20.2808C39.9132 20.3489 39.9817 20.4018 40.0603 20.4342L40.063 20.4355C40.2342 20.488 40.4135 20.5097 40.5923 20.4995H40.5883L41.315 20.5182C41.8698 20.4647 42.4235 20.6292 42.8591 20.9769L42.8551 20.9729C43.0016 21.1344 43.1131 21.3246 43.1824 21.5314C43.2517 21.7381 43.2774 21.957 43.2578 22.1743V22.1676C43.2618 23.345 42.5484 23.945 41.1417 23.945L41.1457 23.9477ZM37.7082 23.9477H33.2014V18.2981H37.7042V19.4648H34.5481V20.4915H37.6309V21.6422H34.5481V22.7649L37.7082 22.7703V23.9437V23.9477ZM40.335 14.2326H37.5869L37.0615 12.9739H34.2587L33.7494 14.2326H32.1707C31.4617 14.27 30.7635 14.0466 30.2079 13.6046L30.2146 13.6086C29.9506 13.3172 29.7503 12.9741 29.6263 12.601C29.5023 12.228 29.4575 11.8332 29.4945 11.4418L29.4932 11.4525C29.4589 11.0539 29.5059 10.6525 29.6316 10.2727C29.7572 9.89287 29.9587 9.54256 30.2239 9.24305L30.2212 9.24572C30.5012 9.00089 30.8286 8.8163 31.1831 8.70344C31.5375 8.59058 31.9113 8.55186 32.2813 8.58969L32.2707 8.58836H33.5774V9.79241H32.2973C32.11 9.76828 31.9197 9.78576 31.7399 9.84361C31.5602 9.90146 31.3954 9.99825 31.2573 10.1271L31.2586 10.1258C30.9735 10.4908 30.8351 10.9493 30.8706 11.4111V11.4045C30.8281 11.879 30.9615 12.3526 31.2453 12.7352L31.2413 12.7299C31.5064 12.9465 31.8457 13.0508 32.1867 13.0205H32.1813H32.7867L34.6948 8.58036H36.7215L39.0056 13.9139V8.58036H41.0604L43.4311 12.5112V8.58036H44.8178V14.2233H42.8924L40.3323 9.98575V14.2233L40.335 14.2326ZM35.6695 9.54173L34.7401 11.7925H36.6028L35.6695 9.54173ZM22.6036 14.2299H21.2542V8.58436H24.3583C24.925 8.52556 25.4969 8.62189 26.0131 8.86304L25.9931 8.85504C26.2006 8.9698 26.3736 9.13803 26.4941 9.34227C26.6146 9.5465 26.6783 9.77928 26.6784 10.0164L26.6758 10.1098V10.1058V10.1471C26.6759 10.455 26.5871 10.7565 26.4201 11.0152C26.2531 11.274 26.015 11.479 25.7344 11.6058L25.7237 11.6098C25.9917 11.7112 26.2171 11.8738 26.3891 12.0818L26.3917 12.0845C26.582 12.3973 26.6605 12.7654 26.6144 13.1285L26.6158 13.1205V14.2286H25.2544L25.249 13.5166V13.4099C25.2975 13.0617 25.2204 12.7077 25.0317 12.4112L25.0357 12.4179C24.8945 12.3141 24.7341 12.2394 24.5638 12.1979C24.3935 12.1565 24.2168 12.1492 24.0436 12.1765L24.0516 12.1752H22.6049V14.2286L22.6036 14.2299ZM22.6036 9.75907V11.0125H24.241C24.4723 11.0376 24.706 10.9959 24.9144 10.8925L24.9077 10.8951C24.9931 10.8432 25.0637 10.7702 25.1128 10.6831C25.1618 10.596 25.1876 10.4977 25.1877 10.3978L25.1864 10.3604V10.3618C25.1931 10.2604 25.1701 10.1594 25.1201 10.071C25.0701 9.9826 24.9953 9.91079 24.905 9.86441L24.9024 9.86308C24.6994 9.77602 24.4785 9.73942 24.2583 9.75641H24.2623L22.6036 9.75907ZM8.31499 14.2299H5.57355L5.05486 12.9712H2.24407L1.72139 14.2299H0.254658L2.67209 8.58436H4.67618L6.97094 13.9272V8.58436H9.17236L10.9378 12.4125L12.5605 8.58436H14.8073V14.2273H13.4205L13.4179 9.81108L11.4618 14.2286H10.2777L8.31633 9.80441V14.2286L8.31499 14.2299ZM3.6428 9.54173L2.72409 11.7925H4.56684L3.6428 9.54173ZM28.8279 14.2286H27.4518V8.58436H28.8292V14.2273L28.8279 14.2286ZM20.3128 14.2286H15.814V8.58436H20.3208V9.75774H17.1634V10.7751H20.2448V11.9338H17.1607V13.0619H20.3182V14.2273L20.3128 14.2286Z"/>
	</symbol>
	<!-- Payment Methods -->

	<!-- Social Networks -->
	<!-- Facebook -->
	<symbol width="8" height="15" viewBox="0 0 8 15" id="facebook">
		<title>Facebook Logo</title><path d="M5.05496 15V8.16893H7.35949L7.70204 5.49434H5.05496V3.79074C5.05496 3.01895 5.27 2.49053 6.37767 2.49053H7.78122V0.105991C7.09831 0.0328054 6.41188 -0.00253208 5.72507 0.000140994C3.68808 0.000140994 2.28953 1.24367 2.28953 3.52653V5.48934H0V8.16392H2.29453V15H5.05496Z"/>
	</symbol>

	<!-- Twitter -->
	<symbol width="19" height="15" viewBox="0 0 19 15" id="twitter">
		<title>Twitter Logo</title><path d="M18.4637 1.78181C17.7848 2.07471 17.0458 2.28551 16.2848 2.36761C17.0749 1.89816 17.6667 1.15652 17.949 0.281814C17.2075 0.722914 16.3952 1.03222 15.5481 1.19601C15.194 0.817523 14.7658 0.516 14.2902 0.310233C13.8145 0.104466 13.3015 -0.00113561 12.7833 9.20947e-06C10.6864 9.20947e-06 9 1.69971 9 3.78551C9 4.07841 9.0355 4.37131 9.09319 4.65311C5.9534 4.48891 3.1531 2.98891 1.29142 0.692316C0.952201 1.27171 0.774438 1.93143 0.776627 2.60282C0.776627 3.91643 1.44453 5.07471 2.46302 5.75592C1.8628 5.73229 1.27665 5.56731 0.752219 5.27441V5.32101C0.752219 7.16051 2.05251 8.68492 3.7855 9.03551C3.46011 9.12003 3.12538 9.16327 2.7892 9.16421C2.5429 9.16421 2.30991 9.1398 2.0747 9.10651C2.55399 10.6065 3.9497 11.696 5.61168 11.7315C4.31139 12.75 2.68269 13.3491 0.914201 13.3491C0.596893 13.3491 0.303994 13.338 0 13.3025C1.67751 14.3787 3.6679 15 5.81139 15C12.77 15 16.5777 9.23521 16.5777 4.23152C16.5777 4.06731 16.5777 3.90311 16.5666 3.73891C17.3032 3.19971 17.949 2.53181 18.4637 1.78181Z"/>
	</symbol>

	<!-- Instagram -->
	<symbol width="15" height="15" viewBox="0 0 15 15" id="instagram">
		<title>Instagram Logo</title><path d="M7.49812 4.99894C6.12094 4.99894 4.99706 6.12282 4.99706 7.5C4.99706 8.87718 6.12094 10.0011 7.49812 10.0011C8.8753 10.0011 9.99919 8.87718 9.99919 7.5C9.99919 6.12282 8.8753 4.99894 7.49812 4.99894ZM14.9994 7.5C14.9994 6.4643 15.0088 5.43798 14.9507 4.40416C14.8925 3.20335 14.6186 2.13763 13.7405 1.25953C12.8605 0.379564 11.7967 0.107505 10.5958 0.049341C9.56014 -0.00882328 8.53382 0.000558085 7.5 0.000558085C6.4643 0.000558085 5.43798 -0.00882328 4.40416 0.049341C3.20335 0.107505 2.13763 0.38144 1.25953 1.25953C0.379564 2.1395 0.107505 3.20335 0.049341 4.40416C-0.00882328 5.43986 0.000558085 6.46618 0.000558085 7.5C0.000558085 8.53382 -0.00882328 9.56202 0.049341 10.5958C0.107505 11.7967 0.38144 12.8624 1.25953 13.7405C2.1395 14.6204 3.20335 14.8925 4.40416 14.9507C5.43986 15.0088 6.46618 14.9994 7.5 14.9994C8.5357 14.9994 9.56202 15.0088 10.5958 14.9507C11.7967 14.8925 12.8624 14.6186 13.7405 13.7405C14.6204 12.8605 14.8925 11.7967 14.9507 10.5958C15.0107 9.56202 14.9994 8.5357 14.9994 7.5ZM7.49812 11.3482C5.36856 11.3482 3.6499 9.62956 3.6499 7.5C3.6499 5.37044 5.36856 3.65177 7.49812 3.65177C9.62769 3.65177 11.3463 5.37044 11.3463 7.5C11.3463 9.62956 9.62769 11.3482 7.49812 11.3482ZM11.504 4.3929C11.0067 4.3929 10.6052 3.99138 10.6052 3.49417C10.6052 2.99696 11.0067 2.59544 11.504 2.59544C12.0012 2.59544 12.4027 2.99696 12.4027 3.49417C12.4028 3.61223 12.3797 3.72917 12.3346 3.83827C12.2895 3.94738 12.2233 4.04651 12.1398 4.13C12.0563 4.21348 11.9572 4.27968 11.8481 4.32479C11.739 4.3699 11.622 4.39305 11.504 4.3929Z"/>
	</symbol>

	<!-- Youtube -->
	<symbol width="23" height="15" viewBox="0 0 23 15" id="youtube">
		<title>Youtube Logo</title><path d="M22.0182 2.3535C21.8908 1.89931 21.6428 1.48811 21.3005 1.16361C20.9485 0.829138 20.517 0.589879 20.0469 0.468421C18.2874 0.00464597 11.238 0.00464608 11.238 0.00464608C8.29918 -0.0287901 5.36109 0.11827 2.44031 0.444998C1.97016 0.575429 1.53953 0.820034 1.18672 1.15706C0.840057 1.4906 0.588963 1.90191 0.457795 2.35256C0.142702 4.05002 -0.0103912 5.77358 0.00057825 7.49999C-0.0106648 9.22486 0.142053 10.9479 0.457795 12.6474C0.586152 13.0962 0.83631 13.5056 1.18391 13.8364C1.5315 14.1671 1.96436 14.406 2.44031 14.5325C4.22327 14.9953 11.238 14.9953 11.238 14.9953C14.1805 15.0288 17.1224 14.8818 20.0469 14.555C20.517 14.4335 20.9485 14.1943 21.3005 13.8598C21.6471 13.5291 21.8936 13.1178 22.0172 12.6699C22.3405 10.9731 22.4978 9.24884 22.4866 7.52154C22.5109 5.78694 22.3539 4.05454 22.0182 2.35256V2.3535ZM8.99687 10.708V4.29292L14.862 7.50093L8.99687 10.708Z"/>
	</symbol>
	<!-- Social Networks -->
</svg>